<?xml version="1.0" encoding="UTF-8" standalone="no"?>
<!DOCTYPE svg PUBLIC "-//W3C//DTD SVG 1.1//EN"
 "http://www.w3.org/Graphics/SVG/1.1/DTD/svg11.dtd">
<!-- Generated by graphviz version 2.43.0 (0)
 -->
<!-- Title: G Pages: 1 -->
<svg width="662pt" height="214pt"
 viewBox="0.00 0.00 662.47 214.00" xmlns="http://www.w3.org/2000/svg" xmlns:xlink="http://www.w3.org/1999/xlink">
<g id="graph0" class="graph" transform="scale(1 1) rotate(0) translate(4 210)">
<title>G</title>
<polygon fill="white" stroke="transparent" points="-4,4 -4,-210 658.47,-210 658.47,4 -4,4"/>
<g id="clust1" class="cluster">
<title>cluster_A</title>
<polygon fill="none" stroke="black" points="8,-66 8,-151 232.49,-151 232.49,-66 8,-66"/>
<text text-anchor="middle" x="120.24" y="-135.8" font-family="Times,serif" font-size="14.00">Cover Region A</text>
</g>
<g id="clust2" class="cluster">
<title>cluster_B</title>
<polygon fill="none" stroke="black" points="252.49,-113 252.49,-198 398.08,-198 398.08,-113 252.49,-113"/>
<text text-anchor="middle" x="325.28" y="-182.8" font-family="Times,serif" font-size="14.00">Cover Region B</text>
</g>
<g id="clust3" class="cluster">
<title>cluster_C</title>
<polygon fill="none" stroke="black" points="335.28,-20 335.28,-105 646.47,-105 646.47,-20 335.28,-20"/>
<text text-anchor="middle" x="490.88" y="-89.8" font-family="Times,serif" font-size="14.00">Cover Region C</text>
</g>
<!-- A1 -->
<g id="node1" class="node">
<title>A1</title>
<ellipse fill="white" stroke="black" cx="38.75" cy="-97" rx="23" ry="23"/>
<text text-anchor="middle" x="38.75" y="-93.3" font-family="Times,serif" font-size="14.00">A1</text>
</g>
<!-- A2 -->
<g id="node2" class="node">
<title>A2</title>
<ellipse fill="white" stroke="black" cx="120.24" cy="-97" rx="23" ry="23"/>
<text text-anchor="middle" x="120.24" y="-93.3" font-family="Times,serif" font-size="14.00">A2</text>
</g>
<!-- A1&#45;&#45;A2 -->
<g id="edge1" class="edge">
<title>A1&#45;&#45;A2</title>
<path fill="none" stroke="black" d="M61.89,-97C73.01,-97 86.43,-97 97.49,-97"/>
</g>
<!-- A3 -->
<g id="node3" class="node">
<title>A3</title>
<ellipse fill="white" stroke="black" cx="201.74" cy="-97" rx="23" ry="23"/>
<text text-anchor="middle" x="201.74" y="-93.3" font-family="Times,serif" font-size="14.00">A3</text>
</g>
<!-- A2&#45;&#45;A3 -->
<g id="edge2" class="edge">
<title>A2&#45;&#45;A3</title>
<path fill="none" stroke="black" d="M143.39,-97C154.51,-97 167.93,-97 178.99,-97"/>
</g>
<!-- C3 -->
<g id="node8" class="node">
<title>C3</title>
<ellipse fill="white" stroke="black" cx="532.27" cy="-51" rx="23.3" ry="23.3"/>
<text text-anchor="middle" x="532.27" y="-47.3" font-family="Times,serif" font-size="14.00">C3</text>
</g>
<!-- A2&#45;&#45;C3 -->
<g id="edge9" class="edge">
<title>A2&#45;&#45;C3</title>
<path fill="none" stroke="black" d="M135.95,-80.55C162.4,-52.87 221.03,0 282.89,0 282.89,0 282.89,0 367.68,0 415.19,0 428.09,-3.16 472.88,-19 486.72,-23.9 501.2,-31.81 512.28,-38.54"/>
</g>
<!-- B1 -->
<g id="node4" class="node">
<title>B1</title>
<ellipse fill="white" stroke="black" cx="283.89" cy="-144" rx="23.3" ry="23.3"/>
<text text-anchor="middle" x="283.89" y="-140.3" font-family="Times,serif" font-size="14.00">B1</text>
</g>
<!-- A3&#45;&#45;B1 -->
<g id="edge7" class="edge">
<title>A3&#45;&#45;B1</title>
<path fill="none" stroke="black" d="M221.73,-108.14C234.23,-115.47 250.55,-125.04 263.19,-132.45"/>
</g>
<!-- B2 -->
<g id="node5" class="node">
<title>B2</title>
<ellipse fill="white" stroke="black" cx="366.68" cy="-144" rx="23.3" ry="23.3"/>
<text text-anchor="middle" x="366.68" y="-140.3" font-family="Times,serif" font-size="14.00">B2</text>
</g>
<!-- B1&#45;&#45;B2 -->
<g id="edge3" class="edge">
<title>B1&#45;&#45;B2</title>
<path fill="none" stroke="black" d="M307.39,-144C318.5,-144 331.88,-144 343.02,-144"/>
</g>
<!-- C2 -->
<g id="node7" class="node">
<title>C2</title>
<ellipse fill="white" stroke="black" cx="449.48" cy="-51" rx="23.3" ry="23.3"/>
<text text-anchor="middle" x="449.48" y="-47.3" font-family="Times,serif" font-size="14.00">C2</text>
</g>
<!-- B2&#45;&#45;C2 -->
<g id="edge8" class="edge">
<title>B2&#45;&#45;C2</title>
<path fill="none" stroke="black" d="M382.88,-126.51C397.32,-109.88 418.93,-85.02 433.35,-68.41"/>
</g>
<!-- C1 -->
<g id="node6" class="node">
<title>C1</title>
<ellipse fill="white" stroke="black" cx="366.68" cy="-51" rx="23.3" ry="23.3"/>
<text text-anchor="middle" x="366.68" y="-47.3" font-family="Times,serif" font-size="14.00">C1</text>
</g>
<!-- C1&#45;&#45;C2 -->
<g id="edge4" class="edge">
<title>C1&#45;&#45;C2</title>
<path fill="none" stroke="black" d="M390.19,-51C401.3,-51 414.68,-51 425.81,-51"/>
</g>
<!-- C2&#45;&#45;C3 -->
<g id="edge5" class="edge">
<title>C2&#45;&#45;C3</title>
<path fill="none" stroke="black" d="M472.98,-51C484.1,-51 497.47,-51 508.61,-51"/>
</g>
<!-- C4 -->
<g id="node9" class="node">
<title>C4</title>
<ellipse fill="white" stroke="black" cx="615.07" cy="-51" rx="23.3" ry="23.3"/>
<text text-anchor="middle" x="615.07" y="-47.3" font-family="Times,serif" font-size="14.00">C4</text>
</g>
<!-- C3&#45;&#45;C4 -->
<g id="edge6" class="edge">
<title>C3&#45;&#45;C4</title>
<path fill="none" stroke="black" d="M555.78,-51C566.89,-51 580.27,-51 591.4,-51"/>
</g>
</g>
</svg>
