<?xml version="1.0" encoding="UTF-8" standalone="no"?>
<!DOCTYPE svg PUBLIC "-//W3C//DTD SVG 1.1//EN"
 "http://www.w3.org/Graphics/SVG/1.1/DTD/svg11.dtd">
<!-- Generated by graphviz version 2.43.0 (0)
 -->
<!-- Title: phi_integration Pages: 1 -->
<svg width="1419pt" height="310pt"
 viewBox="0.00 0.00 1419.00 310.20" xmlns="http://www.w3.org/2000/svg" xmlns:xlink="http://www.w3.org/1999/xlink">
<g id="graph0" class="graph" transform="scale(1 1) rotate(0) translate(4 306.2)">
<title>phi_integration</title>
<g id="clust1" class="cluster">
<title>cluster_agents</title>
<polygon fill="#e3f2fd" stroke="black" points="8,-118.2 8,-294.2 797,-294.2 797,-118.2 8,-118.2"/>
<text text-anchor="middle" x="402.5" y="-279" font-family="Times,serif" font-size="14.00">High&#45;Φ Agent Cluster</text>
</g>
<g id="clust2" class="cluster">
<title>cluster_memory</title>
<polygon fill="#fff8e1" stroke="black" points="880,-112.2 880,-281.2 1161,-281.2 1161,-112.2 880,-112.2"/>
<text text-anchor="middle" x="1020.5" y="-266" font-family="Times,serif" font-size="14.00">Memory Storage (Lower Integration)</text>
</g>
<!-- A1 -->
<g id="node1" class="node">
<title>A1</title>
<ellipse fill="white" stroke="black" cx="35.7" cy="-146.2" rx="19.9" ry="19.9"/>
<text text-anchor="middle" x="35.7" y="-143.1" font-family="Arial" font-size="12.00">A1</text>
</g>
<!-- A2 -->
<g id="node2" class="node">
<title>A2</title>
<ellipse fill="white" stroke="black" cx="163.9" cy="-146.2" rx="19.9" ry="19.9"/>
<text text-anchor="middle" x="163.9" y="-143.1" font-family="Arial" font-size="12.00">A2</text>
</g>
<!-- A1&#45;&gt;A2 -->
<g id="edge1" class="edge">
<title>A1&#45;&gt;A2</title>
<path fill="none" stroke="#1565c0" stroke-width="2.4" d="M65.88,-146.2C86.23,-146.2 113.26,-146.2 133.62,-146.2"/>
<polygon fill="#1565c0" stroke="#1565c0" stroke-width="2.4" points="65.59,-142.7 55.59,-146.2 65.59,-149.7 65.59,-142.7"/>
<polygon fill="#1565c0" stroke="#1565c0" stroke-width="2.4" points="133.88,-149.7 143.88,-146.2 133.88,-142.7 133.88,-149.7"/>
</g>
<!-- GW -->
<g id="node8" class="node">
<title>GW</title>
<ellipse fill="#90caf9" stroke="black" cx="326.6" cy="-54.2" rx="50.39" ry="50.39"/>
<ellipse fill="none" stroke="black" cx="326.6" cy="-54.2" rx="54.41" ry="54.41"/>
<text text-anchor="middle" x="326.6" y="-57.6" font-family="Arial" font-size="12.00">GW</text>
<text text-anchor="middle" x="326.6" y="-44.6" font-family="Arial" font-size="12.00">Broadcast</text>
</g>
<!-- A1&#45;&gt;GW -->
<g id="edge8" class="edge">
<title>A1&#45;&gt;GW</title>
<path fill="none" stroke="#1565c0" stroke-width="2.4" d="M52.34,-135.02C72.27,-121.34 108.24,-98.47 142.4,-86.2 180.84,-72.4 226.03,-64.43 261.91,-59.89"/>
<polygon fill="#1565c0" stroke="#1565c0" stroke-width="2.4" points="262.74,-63.32 272.25,-58.65 261.9,-56.37 262.74,-63.32"/>
<text text-anchor="middle" x="163.9" y="-89.2" font-family="Arial" font-size="10.00">broadcast</text>
</g>
<!-- A2&#45;&gt;A2 -->
<g id="edge2" class="edge">
<title>A2&#45;&gt;A2</title>
<path fill="none" stroke="black" stroke-width="0" d="M156.13,-164.54C148.56,-191.01 151.15,-223.9 163.9,-223.9 176.65,-223.9 179.24,-191.01 171.67,-164.54"/>
</g>
<!-- P1 -->
<g id="node5" class="node">
<title>P1</title>
<ellipse fill="white" stroke="black" cx="326.6" cy="-243.2" rx="19.9" ry="19.9"/>
<text text-anchor="middle" x="326.6" y="-240.1" font-family="Arial" font-size="12.00">P1</text>
</g>
<!-- A2&#45;&gt;P1 -->
<g id="edge3" class="edge">
<title>A2&#45;&gt;P1</title>
<path fill="none" stroke="#1976d2" stroke-width="2" d="M189.88,-161.28C220.03,-179.48 270.44,-209.91 300.6,-228.11"/>
<polygon fill="#1976d2" stroke="#1976d2" stroke-width="2" points="191.56,-158.21 181.19,-156.04 187.94,-164.2 191.56,-158.21"/>
<polygon fill="#1976d2" stroke="#1976d2" stroke-width="2" points="298.9,-231.17 309.27,-233.34 302.51,-225.18 298.9,-231.17"/>
</g>
<!-- A2&#45;&gt;GW -->
<g id="edge9" class="edge">
<title>A2&#45;&gt;GW</title>
<path fill="none" stroke="#1976d2" stroke-width="2" d="M181.49,-136.71C202.29,-124.8 239.01,-103.78 270.17,-85.94"/>
<polygon fill="#1976d2" stroke="#1976d2" stroke-width="2" points="272.28,-88.77 279.22,-80.76 268.8,-82.69 272.28,-88.77"/>
</g>
<!-- A3 -->
<g id="node3" class="node">
<title>A3</title>
<ellipse fill="white" stroke="black" cx="613.9" cy="-243.2" rx="19.9" ry="19.9"/>
<text text-anchor="middle" x="613.9" y="-240.1" font-family="Arial" font-size="12.00">A3</text>
</g>
<!-- R1 -->
<g id="node7" class="node">
<title>R1</title>
<ellipse fill="white" stroke="black" cx="769.3" cy="-243.2" rx="19.9" ry="19.9"/>
<text text-anchor="middle" x="769.3" y="-240.1" font-family="Arial" font-size="12.00">R1</text>
</g>
<!-- A3&#45;&gt;R1 -->
<g id="edge6" class="edge">
<title>A3&#45;&gt;R1</title>
<path fill="none" stroke="#2196f3" stroke-width="1.5" d="M643.87,-243.2C671.18,-243.2 711.88,-243.2 739.22,-243.2"/>
<polygon fill="#2196f3" stroke="#2196f3" stroke-width="1.5" points="643.71,-239.7 633.71,-243.2 643.71,-246.7 643.71,-239.7"/>
<polygon fill="#2196f3" stroke="#2196f3" stroke-width="1.5" points="739.34,-246.7 749.34,-243.2 739.34,-239.7 739.34,-246.7"/>
</g>
<!-- E1 -->
<g id="node4" class="node">
<title>E1</title>
<ellipse fill="white" stroke="black" cx="487.51" cy="-243.2" rx="19.9" ry="19.9"/>
<text text-anchor="middle" x="487.51" y="-240.1" font-family="Arial" font-size="12.00">E1</text>
</g>
<!-- E1&#45;&gt;A3 -->
<g id="edge5" class="edge">
<title>E1&#45;&gt;A3</title>
<path fill="none" stroke="#1e88e5" stroke-width="1.8" d="M517.5,-243.2C537.43,-243.2 563.8,-243.2 583.76,-243.2"/>
<polygon fill="#1e88e5" stroke="#1e88e5" stroke-width="1.8" points="517.4,-239.7 507.4,-243.2 517.4,-246.7 517.4,-239.7"/>
<polygon fill="#1e88e5" stroke="#1e88e5" stroke-width="1.8" points="583.83,-246.7 593.83,-243.2 583.83,-239.7 583.83,-246.7"/>
</g>
<!-- P1&#45;&gt;E1 -->
<g id="edge4" class="edge">
<title>P1&#45;&gt;E1</title>
<path fill="none" stroke="#1976d2" stroke-width="2" d="M356.62,-243.2C385.27,-243.2 428.84,-243.2 457.49,-243.2"/>
<polygon fill="#1976d2" stroke="#1976d2" stroke-width="2" points="356.45,-239.7 346.45,-243.2 356.45,-246.7 356.45,-239.7"/>
<polygon fill="#1976d2" stroke="#1976d2" stroke-width="2" points="457.68,-246.7 467.68,-243.2 457.68,-239.7 457.68,-246.7"/>
</g>
<!-- P2 -->
<g id="node6" class="node">
<title>P2</title>
<ellipse fill="white" stroke="black" cx="487.51" cy="-146.2" rx="19.9" ry="19.9"/>
<text text-anchor="middle" x="487.51" y="-143.1" font-family="Arial" font-size="12.00">P2</text>
</g>
<!-- P1&#45;&gt;P2 -->
<g id="edge7" class="edge">
<title>P1&#45;&gt;P2</title>
<path fill="none" stroke="#2196f3" stroke-width="1.5" d="M352.3,-228.13C382.12,-209.93 431.96,-179.5 461.78,-161.3"/>
<polygon fill="#2196f3" stroke="#2196f3" stroke-width="1.5" points="350.42,-225.17 343.71,-233.37 354.07,-231.15 350.42,-225.17"/>
<polygon fill="#2196f3" stroke="#2196f3" stroke-width="1.5" points="463.64,-164.26 470.35,-156.07 459.99,-158.29 463.64,-164.26"/>
</g>
<!-- M2 -->
<g id="node10" class="node">
<title>M2</title>
<polygon fill="#ffb74d" stroke="black" points="1048,-156.2 993,-156.2 993,-120.2 1048,-120.2 1048,-156.2"/>
<text text-anchor="middle" x="1020.5" y="-141.6" font-family="Arial" font-size="12.00">M2:</text>
<text text-anchor="middle" x="1020.5" y="-128.6" font-family="Arial" font-size="12.00">Identity</text>
</g>
<!-- P2&#45;&gt;M2 -->
<g id="edge13" class="edge">
<title>P2&#45;&gt;M2</title>
<path fill="none" stroke="#f57c00" stroke-dasharray="5,2" d="M507.4,-145.92C584.83,-144.75 878.63,-140.33 982.69,-138.76"/>
<polygon fill="#f57c00" stroke="#f57c00" points="982.78,-142.26 992.72,-138.61 982.67,-135.26 982.78,-142.26"/>
<text text-anchor="middle" x="691.6" y="-146.2" font-family="Arial" font-size="10.00">update</text>
</g>
<!-- M1 -->
<g id="node9" class="node">
<title>M1</title>
<polygon fill="#ffb74d" stroke="black" points="1054,-250.2 987,-250.2 987,-214.2 1054,-214.2 1054,-250.2"/>
<text text-anchor="middle" x="1020.5" y="-235.6" font-family="Arial" font-size="12.00">M1:</text>
<text text-anchor="middle" x="1020.5" y="-222.6" font-family="Arial" font-size="12.00">Episodes</text>
</g>
<!-- R1&#45;&gt;M1 -->
<g id="edge12" class="edge">
<title>R1&#45;&gt;M1</title>
<path fill="none" stroke="#f57c00" stroke-dasharray="5,2" d="M789.03,-242.38C828.59,-240.63 921.52,-236.53 976.53,-234.1"/>
<polygon fill="#f57c00" stroke="#f57c00" points="976.84,-237.59 986.67,-233.65 976.53,-230.6 976.84,-237.59"/>
<text text-anchor="middle" x="838.5" y="-243.2" font-family="Arial" font-size="10.00">log</text>
</g>
<!-- GW&#45;&gt;E1 -->
<g id="edge11" class="edge">
<title>GW&#45;&gt;E1</title>
<path fill="none" stroke="#1976d2" stroke-width="2" d="M364.29,-93.53C369.89,-99.72 375.55,-106.09 380.81,-112.2 412.63,-149.18 447.89,-193.64 468.58,-220.09"/>
<polygon fill="#1976d2" stroke="#1976d2" stroke-width="2" points="465.85,-222.29 474.76,-228.02 471.37,-217.98 465.85,-222.29"/>
</g>
<!-- GW&#45;&gt;P1 -->
<g id="edge10" class="edge">
<title>GW&#45;&gt;P1</title>
<path fill="none" stroke="#1565c0" stroke-width="2.4" d="M326.6,-108.62C326.6,-142.51 326.6,-184.84 326.6,-212.88"/>
<polygon fill="#1565c0" stroke="#1565c0" stroke-width="2.4" points="323.1,-213.24 326.6,-223.24 330.1,-213.24 323.1,-213.24"/>
<text text-anchor="middle" x="318.1" y="-163.46" font-family="Arial" font-size="10.00">global access</text>
</g>
<!-- legend -->
<g id="node11" class="node">
<title>legend</title>
<polygon fill="#f5f5f5" stroke="black" points="1411,-168.2 1196,-168.2 1196,-108.2 1411,-108.2 1411,-168.2"/>
<text text-anchor="middle" x="1303.5" y="-154.6" font-family="Arial" font-size="12.00">Legend:</text>
<text text-anchor="middle" x="1303.5" y="-141.6" font-family="Arial" font-size="12.00">Edge thickness ∝ integration strength</text>
<text text-anchor="middle" x="1303.5" y="-128.6" font-family="Arial" font-size="12.00">Dense bidirectionality ⇒ High Φ</text>
<text text-anchor="middle" x="1303.5" y="-115.6" font-family="Arial" font-size="12.00">Dashed edges ⇒ Lower integration</text>
</g>
</g>
</svg>
